<svg xmlns="http://www.w3.org/2000/svg" viewBox="0 0 100 100">
  <!-- Blue water background -->
  <rect width="100" height="100" fill="#3B82F6"/>

  <!-- Waves -->
  <path d="M 0 70 Q 25 60, 50 70 T 100 70 L 100 100 L 0 100 Z" fill="#2563EB" opacity="0.5"/>
  <path d="M 0 80 Q 25 75, 50 80 T 100 80 L 100 100 L 0 100 Z" fill="#1E40AF" opacity="0.3"/>

  <!-- Boat -->
  <path d="M 30 50 L 25 65 Q 25 68 28 68 L 72 68 Q 75 68 75 65 L 70 50 Z"
        fill="#D97706" stroke="#92400E" stroke-width="2"/>
  <rect x="28" y="48" width="44" height="3" rx="1.5" fill="#92400E"/>

  <!-- Sheep emoji style -->
  <circle cx="42" cy="45" r="8" fill="#F3F4F6"/>
  <circle cx="40" cy="42" r="3" fill="#F3F4F6"/>
  <circle cx="44" cy="42" r="3" fill="#F3F4F6"/>
  <circle cx="40" cy="46" r="1.5" fill="#1F2937"/>
  <circle cx="44" cy="46" r="1.5" fill="#1F2937"/>

  <!-- Lion emoji style -->
  <circle cx="58" cy="45" r="8" fill="#D97706"/>
  <circle cx="54" cy="40" r="2.5" fill="#B45309"/>
  <circle cx="62" cy="40" r="2.5" fill="#B45309"/>
  <circle cx="56" cy="46" r="1.5" fill="#1F2937"/>
  <circle cx="60" cy="46" r="1.5" fill="#1F2937"/>
</svg>
